<?xml version="1.0" encoding="utf-8"?>
<!-- Generator: Adobe Illustrator 26.0.1, SVG Export Plug-In . SVG Version: 6.00 Build 0)  -->
<svg version="1.1" id="Capa_1" xmlns="http://www.w3.org/2000/svg" xmlns:xlink="http://www.w3.org/1999/xlink" x="0px" y="0px"
	 viewBox="0 0 595.3 841.9" style="enable-background:new 0 0 595.3 841.9;" xml:space="preserve">
<style type="text/css">
	.st0{opacity:0.52;fill:#FFFFFF;}
	.st1{fill:#FFFFFF;}
</style>
<path class="st0" d="M211.2,439.2c5.1,3.3,11.1,4.4,17,3.1c5.9-1.3,10.9-4.8,14.2-9.8l57.6-88.3l-8.3-12.6l-60.4,93.6
	c-1.8,2.7-4.8,4.2-7.8,4.2c-1.7,0-3.5-0.5-5-1.5c-4.3-2.8-5.5-8.5-2.8-12.8l63-97.8c-3-5-7.1-12.5-2.8-16.5c4-3.6,4.8-10.9,9.8-14.2
	c1.8-1.2,3.8-2.1,5.8-2.7c-2,0.6-3.9,1.5-5.7,2.6c-5.1,3.3-12.9,15.8-14.1,21.7c-1.2,5.7,4.1,4,7.1,8.9l10.8-16.7
	c1.3-2.1,3.4-3.5,5.8-4c0.8-0.2,1.6-0.2,2.4-0.2c0.8,0,1.5,0,2.3,0.2c2.4,0.5,4.5,2,5.8,4l10.8,16.7c0,0,0,0,0,0l63,97.8
	c2.8,4.3,1.5,10-2.8,12.8c-1.6,1-3.3,1.5-5,1.5c-3,0-6-1.5-7.8-4.2l-58.5-90.6l0,0l-7.9-12.3l-7.9,12.3l7.9,12.2l0,0l55.2,85.6
	c3.3,5.1,8.3,8.6,14.2,9.8c5.9,1.3,11.9,0.2,17-3.1c10.5-6.7,13.5-20.7,6.7-31.2L317,293.6c-3.3-5.1-8.3-8.6-14.2-9.8
	c-1.6-0.3-3.2-0.5-4.8-0.5c0,0-0.1,0-0.1,0c0,0-0.1,0-0.1,0c-0.1,0-0.1,0-0.2,0c-0.1,0-0.2,0-0.2,0c-1.6,0-3.2,0.2-4.8,0.5
	c-5.9,1.3-10.9,4.8-14.2,9.8L204.5,408C197.7,418.5,200.8,432.5,211.2,439.2z"/>
<path class="st1" d="M362.1,293.6c-3.8-2.5-8.3-3.3-12.7-2.4c-4.4,1-8.2,3.6-10.6,7.5l-41.2,65.4l5.9,9.4l43.6-69.3
	c1.3-2.1,3.5-3.2,5.8-3.2c1.3,0,2.6,0.4,3.7,1.1c3.2,2.1,4.1,6.5,2.1,9.8l-47,74.7c2.2,3.8,3,8.2,2.1,12.6c-1,4.5-3.6,8.4-7.3,10.9
	c-1.4,0.9-2.8,1.6-4.3,2c1.5-0.5,2.9-1.1,4.3-2c3.8-2.5,6.4-6.4,7.3-10.9c0.9-4.3,0.2-8.8-2.1-12.6l-8,12.8c-1,1.6-2.5,2.7-4.3,3.1
	c-0.6,0.1-1.2,0.2-1.8,0.1c-0.6,0-1.1,0-1.7-0.2c-1.8-0.4-3.3-1.5-4.3-3.1l-8-12.7c0,0,0,0,0,0l-47-74.8c-2.1-3.3-1.1-7.7,2.1-9.8
	c1.2-0.8,2.5-1.1,3.7-1.1c2.3,0,4.5,1.1,5.8,3.2l43.6,69.3l0,0l5.9,9.4l5.9-9.4l-5.9-9.4l0,0l-41.2-65.5c-2.4-3.9-6.2-6.5-10.6-7.5
	c-4.4-1-8.9-0.1-12.7,2.4c-7.8,5.2-10.1,15.9-5,23.8l55,87.5c2.4,3.9,6.2,6.5,10.6,7.5c1.2,0.3,2.4,0.4,3.6,0.4c0,0,0,0,0.1,0
	c0,0,0.1,0,0.1,0c0,0,0.1,0,0.1,0c0.1,0,0.1,0,0.2,0c1.2,0,2.4-0.1,3.6-0.4c4.4-1,8.2-3.6,10.6-7.5l55-87.5
	C372.1,309.4,369.9,298.7,362.1,293.6z"/>
</svg>
